<svg viewBox="0 0 16 16" fill="none" xmlns="http://www.w3.org/2000/svg">
    <path
        d="M4.46432 5.17155C4.26906 4.97628 4.26906 4.6597 4.46432 4.46444C4.65958 4.26918 4.97616 4.26918 5.17142 4.46444L11.5354 10.8284C11.7306 11.0237 11.7306 11.3402 11.5354 11.5355C11.3401 11.7308 11.0235 11.7308 10.8283 11.5355L4.46432 5.17155Z"
        fill="currentColor" />
    <path
        d="M10.8283 4.46444C11.0235 4.26918 11.3401 4.26918 11.5354 4.46444C11.7306 4.6597 11.7306 4.97628 11.5354 5.17155L5.17142 11.5355C4.97616 11.7308 4.65958 11.7308 4.46432 11.5355C4.26906 11.3402 4.26906 11.0237 4.46432 10.8284L10.8283 4.46444Z"
        fill="currentColor" />
</svg>